 <svg  version="1.0" xmlns="http://www.w3.org/2000/svg"  width="300.000000pt" height="219.000000pt" viewBox="0 0 300.000000 219.000000"  preserveAspectRatio="xMidYMid meet">  <g transform="translate(0.000000,219.000000) scale(0.100000,-0.100000)" fill="#ffffff" stroke="none"> <path d="M676 1645 c-49 -16 -55 -42 -55 -230 0 -177 8 -228 39 -245 15 -8 17 -19 12 -75 -4 -56 -2 -68 13 -79 16 -11 24 -11 52 0 18 8 33 12 33 9 0 -2 12 0 26 5 22 9 29 7 46 -15 16 -20 28 -25 67 -25 26 0 51 3 55 7 12 13 89 17 171 11 35 -3 55 0 68 10 15 13 19 13 37 -3 27 -25 176 -32 205 -11 16 11 17 16 6 29 -7 9 -26 19 -42 22 -16 4 -29 12 -30 18 -2 28 -7 53 -14 70 -6 14 -2 17 25 17 73 0 113 93 91 214 -23 124 -109 214 -246 256 -53 17 -517 29 -559 15z m555 -53 c113 -37 182 -103 208 -198 14 -50 14 -122 0 -163 l-11 -31 -74 0 c-73 0 -74 0 -63 22 7 13 10 52 7 104 -4 70 -9 90 -34 131 -36 58 -106 108 -174 122 -28 6 -100 11 -160 11 l-110 0 0 -195 0 -195 -80 0 -80 0 0 208 0 208 253 -1 c229 -1 258 -3 318 -23z m-113 -62 c104 -45 154 -135 145 -265 -5 -72 -4 -72 29 -99 23 -18 28 -26 16 -26 -9 0 -20 5 -23 10 -9 15 -107 12 -127 -4 -10 -7 -18 -21 -18 -30 0 -23 -6 -20 -38 15 -36 40 -62 34 -96 -26 -39 -66 -50 -68 -42 -6 6 47 5 52 -16 60 -27 10 -87 3 -106 -12 -9 -7 -16 -7 -24 1 -9 9 -7 17 10 32 25 24 24 16 27 175 4 199 3 193 23 198 43 12 192 -3 240 -23z m-320 -402 c7 -7 12 -21 12 -33 0 -12 -5 -26 -12 -33 -16 -16 -65 -15 -75 1 -5 8 -10 0 -14 -23 -5 -27 -7 -19 -8 33 l-1 67 43 0 c24 0 48 -5 55 -12z m162 2 c0 -5 -20 -10 -45 -10 -36 0 -45 -3 -45 -18 0 -14 7 -17 40 -14 25 3 40 0 40 -7 0 -6 -17 -11 -40 -11 -33 0 -40 -3 -40 -20 0 -17 7 -20 45 -20 26 0 45 -5 45 -11 0 -6 -7 -8 -16 -5 -9 3 -33 6 -55 6 l-39 0 0 60 0 60 55 0 c30 0 55 -4 55 -10z m139 -47 c17 -31 30 -62 28 -68 -2 -5 -9 0 -16 13 -16 30 -86 32 -96 2 -6 -18 -25 -29 -25 -14 0 11 65 124 72 124 3 0 20 -26 37 -57z m165 51 c18 -7 21 -35 5 -51 -12 -12 4 -53 21 -53 6 0 10 -4 10 -10 0 -22 -30 -8 -45 20 -12 23 -22 30 -46 30 -28 0 -31 -2 -25 -24 3 -14 2 -28 -4 -31 -6 -4 -10 18 -10 59 l0 66 39 0 c22 0 46 -3 55 -6z m86 -49 l0 -55 45 0 c25 0 45 -4 45 -10 0 -6 -24 -9 -55 -9 l-55 2 0 63 c0 36 4 64 10 64 6 0 10 -25 10 -55z"/> <path d="M712 1103 c5 -25 47 -44 70 -32 34 18 17 44 -30 47 -37 3 -43 1 -40 -15z"/> <path d="M1042 1085 c-11 -24 -10 -25 18 -25 33 0 35 3 20 31 -14 26 -25 24 -38 -6z"/> <path d="M1180 1100 c0 -23 37 -28 71 -9 29 15 14 29 -32 29 -32 0 -39 -3 -39 -20z"/> <path d="M1602 1630 c-20 -19 -22 -30 -23 -153 -2 -216 1 -270 13 -284 13 -16 5 -26 -25 -30 -33 -5 -47 -31 -47 -88 0 -38 5 -56 18 -68 23 -21 100 -22 126 -2 13 10 24 11 37 4 14 -7 23 -5 39 11 25 25 32 25 54 2 13 -15 27 -18 64 -15 57 5 93 5 152 0 29 -2 51 1 62 11 14 12 20 11 45 -8 31 -22 57 -19 67 7 4 9 2 21 -4 28 -6 7 -8 25 -4 39 9 39 44 17 44 -28 0 -19 7 -39 15 -46 21 -18 53 12 57 53 4 45 24 44 32 -1 13 -83 66 -71 66 15 0 50 -22 86 -46 76 -22 -8 -16 11 11 37 33 31 48 82 48 157 -1 119 -78 229 -191 275 -54 22 -73 23 -322 26 -257 3 -266 2 -288 -18z m574 -33 c61 -20 137 -84 166 -140 28 -56 33 -140 11 -202 l-18 -50 -73 -5 c-39 -3 -72 -4 -72 -4 0 1 7 19 16 40 26 63 15 180 -22 241 -56 91 -113 113 -291 113 l-123 0 0 -195 0 -195 -80 0 -80 0 0 203 c0 112 2 206 4 208 3 2 119 4 258 4 208 -1 262 -4 304 -18z m-108 -62 c81 -52 112 -107 112 -198 0 -35 -5 -78 -11 -96 -9 -26 -8 -35 5 -50 28 -31 11 -66 -20 -40 -37 31 -144 3 -144 -38 0 -20 -9 -16 -37 17 -32 39 -45 38 -80 -5 l-29 -34 -13 29 c-14 33 -32 38 -55 14 -19 -18 -50 -15 -54 6 -1 8 8 20 20 25 41 18 48 49 48 222 0 119 3 163 13 167 6 3 58 4 115 2 75 -3 110 -9 130 -21z m-418 -410 c7 -8 9 -22 6 -31 -4 -9 -1 -23 5 -30 20 -24 -8 -44 -62 -44 l-49 0 0 60 0 60 44 0 c26 0 48 -6 56 -15z m116 -35 c40 0 44 2 44 25 0 14 5 25 10 25 6 0 10 -28 10 -65 0 -37 -4 -65 -10 -65 -5 0 -10 14 -10 30 0 29 -2 30 -44 30 -43 0 -45 -1 -49 -32 -2 -18 -4 -1 -4 37 0 39 2 58 4 43 4 -26 8 -28 49 -28z m210 -10 c18 -34 27 -63 22 -66 -5 -3 -12 3 -15 15 -4 17 -13 21 -48 21 -35 0 -44 -4 -48 -21 -3 -12 -10 -18 -15 -15 -11 7 48 126 63 126 6 0 24 -27 41 -60z m172 48 c15 -15 15 -23 -2 -40 -17 -17 -3 -58 19 -58 9 0 13 -4 10 -10 -11 -19 -34 -10 -47 18 -9 18 -22 28 -41 30 -23 3 -27 0 -27 -22 0 -14 -4 -28 -10 -31 -6 -4 -10 18 -10 59 l0 66 48 0 c26 0 53 -5 60 -12z m162 2 c0 -5 -11 -10 -25 -10 -24 0 -25 -3 -25 -56 0 -35 -4 -53 -10 -49 -6 4 -8 26 -4 56 l7 49 -32 0 c-17 0 -31 5 -31 10 0 6 27 10 60 10 33 0 60 -4 60 -10z m60 -49 c0 -33 -4 -63 -10 -66 -6 -4 -10 18 -10 59 0 37 4 66 10 66 6 0 10 -26 10 -59z"/> <path d="M1560 1105 c0 -11 11 -15 40 -15 29 0 40 4 40 15 0 11 -11 15 -40 15 -29 0 -40 -4 -40 -15z"/> <path d="M1560 1050 c0 -19 5 -21 43 -18 29 2 42 8 42 18 0 10 -13 16 -42 18 -38 3 -43 1 -43 -18z"/> <path d="M1922 1095 c-16 -35 -16 -35 13 -35 28 0 30 5 12 38 l-13 23 -12 -26z"/> <path d="M2060 1100 c0 -21 30 -27 64 -14 33 13 17 34 -24 34 -33 0 -40 -3 -40 -20z"/> <path d="M102 1077 c-22 -23 -22 -24 -3 -41 16 -14 42 -18 148 -20 154 -3 180 0 195 27 9 17 7 24 -11 38 -19 15 -44 18 -165 18 -137 1 -144 0 -164 -22z m328 -19 c0 -10 -38 -13 -162 -11 -90 1 -164 2 -166 3 -2 0 0 5 3 10 10 16 325 13 325 -2z"/> <path d="M2643 1078 c-13 -14 -15 -23 -7 -36 16 -24 45 -28 191 -27 115 2 136 4 154 21 l21 19 -27 22 c-25 22 -34 23 -170 22 -129 -1 -146 -3 -162 -21z m327 -20 c0 -10 -39 -13 -160 -13 -121 0 -160 3 -160 13 0 9 39 12 160 12 121 0 160 -3 160 -12z"/> <path d="M649 931 c-24 -19 -24 -22 -24 -204 0 -179 1 -186 23 -210 19 -20 33 -24 86 -26 54 -2 68 2 90 21 24 22 26 29 27 118 2 256 0 278 -23 300 -31 28 -145 29 -179 1z m171 -211 l0 -190 -80 0 -80 0 0 190 0 190 80 0 80 0 0 -190z"/> <path d="M1602 927 c-21 -22 -22 -32 -22 -209 l0 -187 26 -20 c26 -20 36 -21 298 -17 279 4 312 8 397 52 47 24 115 98 144 157 21 45 28 73 29 126 1 61 -2 73 -24 96 -24 25 -29 27 -102 23 -94 -4 -110 -18 -103 -88 11 -96 -43 -198 -129 -243 -34 -18 -62 -22 -164 -25 -69 -2 -128 0 -133 5 -5 5 -10 75 -10 156 -1 130 -3 150 -21 172 -18 23 -26 25 -92 25 -63 0 -75 -3 -94 -23z m168 -198 l0 -181 153 4 c126 4 160 8 198 25 99 44 160 140 160 249 0 35 -3 68 -6 74 -4 6 23 10 73 10 88 0 92 -3 92 -68 0 -94 -53 -191 -133 -246 -86 -58 -136 -66 -434 -66 l-263 0 0 190 0 190 80 0 80 0 0 -181z"/> </g> </svg> 