<svg version="1.1" id="Layer_1" xmlns="http://www.w3.org/2000/svg" xmlns:xlink="http://www.w3.org/1999/xlink" x="0px" y="0px"
	 width="100%" viewBox="0 0 588 589" enable-background="new 0 0 588 589" xml:space="preserve">
<path fill="#000000" opacity="1.000000" stroke="none" 
	d="
M388.000000,590.000000 
	C258.666656,590.000000 129.833328,590.000000 1.000000,590.000000 
	C1.000000,393.666656 1.000000,197.333328 1.000000,1.000000 
	C197.000000,1.000000 393.000000,1.000000 589.000000,1.000000 
	C589.000000,197.333328 589.000000,393.666656 589.000000,590.000000 
	C522.166687,590.000000 455.333344,590.000000 388.000000,590.000000 
M432.778992,263.283722 
	C427.970154,251.655243 424.461945,239.258270 418.124786,228.532776 
	C392.243683,184.729492 354.318054,158.591049 302.803467,155.298248 
	C261.742310,152.673599 226.181763,166.731689 197.057144,195.649506 
	C162.669647,229.792877 147.342880,270.988281 154.923080,319.467224 
	C159.703476,350.040131 174.465256,375.735504 196.150040,397.502228 
	C239.892990,441.410400 306.340088,452.273193 359.763214,422.553619 
	C406.409332,396.604187 433.326538,356.573700 436.548859,302.535278 
	C437.268127,290.472839 434.257935,278.188019 433.060974,265.506958 
	C432.947083,265.024109 432.833191,264.541290 432.778992,263.283722 
z"/>
<path fill="#E6E6E6" opacity="1.000000" stroke="none" 
	d="
M432.964813,266.005585 
	C434.257935,278.188019 437.268127,290.472839 436.548859,302.535278 
	C433.326538,356.573700 406.409332,396.604187 359.763214,422.553619 
	C306.340088,452.273193 239.892990,441.410400 196.150040,397.502228 
	C174.465256,375.735504 159.703476,350.040131 154.923080,319.467224 
	C147.342880,270.988281 162.669647,229.792877 197.057144,195.649506 
	C226.181763,166.731689 261.742310,152.673599 302.803467,155.298248 
	C354.318054,158.591049 392.243683,184.729492 418.124786,228.532776 
	C424.461945,239.258270 427.970154,251.655243 432.528320,263.677185 
	C432.506683,264.715637 432.735748,265.360596 432.964813,266.005585 
M309.085632,159.037888 
	C263.608307,155.081650 225.282150,170.081741 194.225586,203.233383 
	C173.543259,225.310928 160.527405,251.439545 157.166000,281.713196 
	C153.034256,318.924805 163.133560,352.394531 186.489044,381.450104 
	C219.223007,422.173096 261.739929,440.777466 313.959534,434.012634 
	C354.369965,428.777588 385.413910,407.410614 408.589172,374.455322 
	C432.000549,341.164246 439.361206,304.253387 429.583832,264.817169 
	C416.689209,212.807846 370.735901,165.865860 309.085632,159.037888 
z"/>
<path fill="#E5E5E5" opacity="1.000000" stroke="none" 
	d="
M433.012878,265.756287 
	C432.735748,265.360596 432.506683,264.715637 432.498474,264.064545 
	C432.833191,264.541290 432.947083,265.024109 433.012878,265.756287 
z"/>
<path fill="#010101" opacity="1.000000" stroke="none" 
	d="
M309.543610,159.062592 
	C370.735901,165.865860 416.689209,212.807846 429.583832,264.817169 
	C439.361206,304.253387 432.000549,341.164246 408.589172,374.455322 
	C385.413910,407.410614 354.369965,428.777588 313.959534,434.012634 
	C261.739929,440.777466 219.223007,422.173096 186.489044,381.450104 
	C163.133560,352.394531 153.034256,318.924805 157.166000,281.713196 
	C160.527405,251.439545 173.543259,225.310928 194.225586,203.233383 
	C225.282150,170.081741 263.608307,155.081650 309.543610,159.062592 
M345.148285,343.691467 
	C352.619934,337.380096 354.833069,329.139618 353.397919,319.852539 
	C351.307892,306.327515 341.209503,300.968719 328.869354,297.472107 
	C330.077301,297.076965 330.544495,296.939880 331.000641,296.772552 
	C345.322113,291.519775 351.322021,283.199799 350.840851,269.263763 
	C350.437592,257.585846 343.068420,248.480988 329.526245,245.912796 
	C328.294006,245.679108 326.903900,244.487885 326.235718,243.357834 
	C321.547455,235.428650 314.289215,230.851562 305.552338,230.206741 
	C291.150085,229.143845 276.656250,229.312408 262.200287,228.994156 
	C258.945129,228.922501 255.687042,228.983612 252.430298,228.983612 
	C252.259277,229.539413 252.088257,230.095230 251.917236,230.651031 
	C253.394714,231.379959 254.848099,232.665955 256.354248,232.731079 
	C260.509979,232.910721 261.402679,234.870956 261.376770,238.762177 
	C261.208130,264.074585 261.290192,289.388641 261.290192,314.702179 
	C261.290192,319.669922 261.290222,324.637634 261.290222,328.813934 
	C258.681000,332.123566 253.075302,329.184540 252.075089,335.141876 
	C262.751343,335.141876 272.834259,335.141876 282.950928,335.141876 
	C282.950928,338.901215 282.950928,342.198395 282.950928,344.807709 
	C280.828522,348.399017 274.654907,344.822235 274.054932,351.003113 
	C290.435822,351.003113 306.245544,351.048859 322.054840,350.984192 
	C330.217712,350.950806 337.802429,348.839569 345.148285,343.691467 
M236.434647,376.274231 
	C233.877686,379.887451 231.320740,383.500641 228.790451,387.076172 
	C236.354218,393.591705 236.403107,393.581238 241.267578,386.338745 
	C241.509933,385.977905 242.366745,385.962646 242.508652,385.612640 
	C243.285080,383.697449 245.075607,380.929871 244.385574,379.937042 
	C242.764984,377.605316 240.916092,374.211670 236.434647,376.274231 
M287.989990,202.404343 
	C288.727081,202.529007 289.929474,202.998825 290.131470,202.726532 
	C293.173645,198.625473 295.941772,199.879608 298.806702,202.912384 
	C299.053131,203.173248 299.996460,202.775772 300.744202,202.665161 
	C299.364227,198.313889 298.147888,194.172928 296.699738,190.114685 
	C296.309052,189.019730 295.215179,188.175705 294.444061,187.216492 
	C293.570099,188.247360 292.344574,189.143295 291.887451,190.334167 
	C290.459412,194.054428 289.321686,197.886124 287.989990,202.404343 
M287.914551,407.180359 
	C289.194153,408.284943 290.473724,409.389526 291.753326,410.494110 
	C291.595123,405.223969 290.631714,400.578430 289.290100,396.044800 
	C289.054199,395.247681 287.234344,394.919281 286.145935,394.374420 
	C284.022217,399.305847 281.898499,404.237274 279.609619,409.552216 
	C282.954285,408.457031 285.052460,407.770020 287.914551,407.180359 
M313.853821,402.334808 
	C315.570099,404.314758 317.286377,406.294678 319.002625,408.274628 
	C319.405853,407.923462 319.809082,407.572266 320.212280,407.221100 
	C318.591522,404.115356 315.173187,401.408386 318.145752,397.270172 
	C318.418457,396.890503 315.845093,393.396759 314.168304,392.952209 
	C311.981598,392.372528 309.370392,393.394165 306.994232,393.719604 
	C307.293640,403.706268 308.838654,408.424225 311.875153,408.619110 
	C311.590454,406.975128 311.101379,405.359589 311.143158,403.757904 
	C311.158447,403.171387 312.432434,402.617706 313.853821,402.334808 
M264.809204,402.924469 
	C266.239594,398.782440 267.669952,394.640411 269.100311,390.498383 
	C268.476166,390.252808 267.851990,390.007202 267.227814,389.761597 
	C266.221893,391.780457 265.215942,393.799316 264.116760,396.005341 
	C262.309906,395.226379 260.714111,394.538422 259.388855,393.967072 
	C259.845978,391.402924 260.216461,389.324829 260.586945,387.246735 
	C259.946869,387.105774 259.306793,386.964813 258.666718,386.823883 
	C256.912018,391.782379 255.157288,396.740845 253.402573,401.699341 
	C254.016998,401.977570 254.631439,402.255768 255.245880,402.533997 
	C256.279572,400.522186 257.313263,398.510376 258.414490,396.367157 
	C260.138397,397.065247 261.730957,397.710114 263.341187,398.362183 
	C262.697449,400.741394 262.160095,402.727417 261.622711,404.713440 
	C261.938965,404.932678 262.255188,405.151917 262.571442,405.371155 
	C263.211029,404.752869 263.850586,404.134583 264.809204,402.924469 
M320.969971,206.358658 
	C321.642700,206.925690 322.315399,207.492706 323.816711,208.758118 
	C323.394684,204.344833 321.568665,201.191437 325.634155,198.501389 
	C327.820862,197.054489 327.194946,193.437561 324.103424,192.009018 
	C321.938232,191.008499 319.509766,190.577759 316.861450,189.792496 
	C315.987946,195.438889 313.060638,200.181198 313.454132,205.443588 
	C313.973175,205.554459 314.492218,205.665329 315.011230,205.776199 
	C315.828979,203.717133 316.646759,201.658066 317.464508,199.598984 
	C317.959930,199.493439 318.455353,199.387878 318.950775,199.282333 
	C319.589722,201.374084 320.228668,203.465820 320.969971,206.358658 
M268.166595,204.584808 
	C267.776947,203.230362 267.387268,201.875916 267.076202,200.794571 
	C269.099579,199.885468 270.696960,199.167755 272.294342,198.450058 
	C272.144501,198.024475 271.994629,197.598892 271.844788,197.173309 
	C270.027863,197.421234 268.210938,197.669159 266.297699,197.930222 
	C265.896942,196.605972 265.548401,195.454315 265.179932,194.236847 
	C268.058502,193.251678 270.439392,192.436844 272.820282,191.622009 
	C272.659180,191.009216 272.498077,190.396423 272.336975,189.783615 
	C268.974030,190.624878 265.611084,191.466125 261.885010,192.398239 
	C263.316376,197.671036 264.639313,202.544250 266.076477,207.838425 
	C269.818970,206.770828 273.121460,205.828735 276.423950,204.886642 
	C276.222321,204.222244 276.020660,203.557831 275.819000,202.893433 
	C273.538574,203.499680 271.258148,204.105927 268.166595,204.584808 
M237.917328,205.129654 
	C240.596222,209.178604 242.207184,214.056320 245.690720,217.480820 
	C246.182938,217.138458 246.675171,216.796097 247.167389,216.453751 
	C246.308685,214.586578 245.449997,212.719406 244.534882,210.729584 
	C245.948914,209.754990 247.773041,209.124069 248.444382,207.874039 
	C249.255188,206.364349 249.900436,203.775314 249.140244,202.662872 
	C248.188568,201.270233 245.475952,199.926407 243.989716,200.320419 
	C241.680710,200.932495 239.765137,203.028778 237.917328,205.129654 
M338.210999,398.033997 
	C339.096069,398.811951 339.981140,399.589874 340.866211,400.367828 
	C341.184265,400.092773 341.502319,399.817719 341.820404,399.542664 
	C340.011871,395.525787 338.203339,391.508942 336.403381,387.511108 
	C337.756958,386.573303 338.966888,385.735016 340.176819,384.896729 
	C339.866180,384.366608 339.555542,383.836487 339.244873,383.306366 
	C335.818695,384.991913 332.392487,386.677460 328.966278,388.363007 
	C329.167358,388.840942 329.368408,389.318878 329.569489,389.796844 
	C331.019226,389.511658 332.468964,389.226471 333.908325,388.943359 
	C335.370880,392.007599 336.658478,394.705231 338.210999,398.033997 
M335.407837,212.414413 
	C338.313965,214.389923 341.220093,216.365448 344.126221,218.340958 
	C344.518707,217.748886 344.911194,217.156799 345.303680,216.564728 
	C343.158142,215.139404 341.012573,213.714081 338.694336,212.174026 
	C340.962952,208.154892 343.116730,204.339233 345.270477,200.523575 
	C344.669800,200.100647 344.069122,199.677704 343.468414,199.254776 
	C340.226501,202.922150 338.360931,207.661606 335.407837,212.414413 
M358.157074,386.327698 
	C359.120453,386.788025 360.083832,387.248383 361.047211,387.708710 
	C361.305725,387.296875 361.564209,386.885040 361.822693,386.473206 
	C358.522552,382.432220 355.222382,378.391235 351.922241,374.350220 
	C351.315094,374.845398 350.707977,375.340546 350.100830,375.835724 
	C352.656738,379.139008 355.212616,382.442322 358.157074,386.327698 
z"/>
<path fill="#F5F5F5" opacity="1.000000" stroke="none" 
	d="
M344.851074,343.895752 
	C337.802429,348.839569 330.217712,350.950806 322.054840,350.984192 
	C306.245544,351.048859 290.435822,351.003113 274.054932,351.003113 
	C274.654907,344.822235 280.828522,348.399017 282.950928,344.807709 
	C282.950928,342.198395 282.950928,338.901215 282.950928,335.141876 
	C272.834259,335.141876 262.751343,335.141876 252.075089,335.141876 
	C253.075302,329.184540 258.681000,332.123566 261.290222,328.813934 
	C261.290222,324.637634 261.290192,319.669922 261.290192,314.702179 
	C261.290192,289.388641 261.208130,264.074585 261.376770,238.762177 
	C261.402679,234.870956 260.509979,232.910721 256.354248,232.731079 
	C254.848099,232.665955 253.394714,231.379959 251.917236,230.651031 
	C252.088257,230.095230 252.259277,229.539413 252.430298,228.983612 
	C255.687042,228.983612 258.945129,228.922501 262.200287,228.994156 
	C276.656250,229.312408 291.150085,229.143845 305.552338,230.206741 
	C314.289215,230.851562 321.547455,235.428650 326.235718,243.357834 
	C326.903900,244.487885 328.294006,245.679108 329.526245,245.912796 
	C343.068420,248.480988 350.437592,257.585846 350.840851,269.263763 
	C351.322021,283.199799 345.322113,291.519775 331.000641,296.772552 
	C330.544495,296.939880 330.077301,297.076965 328.869354,297.472107 
	C341.209503,300.968719 351.307892,306.327515 353.397919,319.852539 
	C354.833069,329.139618 352.619934,337.380096 344.851074,343.895752 
M332.913391,304.459473 
	C321.453827,297.205231 308.853760,301.066376 296.720642,299.888519 
	C296.720642,316.014801 296.720642,331.287079 296.720642,346.782593 
	C304.836517,346.782593 312.807922,347.117706 320.735046,346.669739 
	C326.419373,346.348541 331.724670,344.543213 335.557800,339.628784 
	C340.741577,332.982727 341.379211,310.631470 332.913391,304.459473 
M314.168304,271.219116 
	C315.917511,263.875946 315.902832,256.542572 314.607666,249.271088 
	C308.270508,249.271088 302.498505,249.271088 296.917542,249.271088 
	C296.917542,261.401337 296.917542,273.272827 296.917542,285.322815 
	C305.966949,284.728912 311.368317,280.150055 314.168304,271.219116 
M315.241669,295.993774 
	C326.393616,295.491425 332.181763,291.770294 335.017090,283.280365 
	C338.645508,272.415497 336.445862,259.285187 330.153381,254.247513 
	C327.473724,281.068573 322.750275,286.212860 296.736847,290.455780 
	C296.736847,292.157074 296.736847,293.891724 296.736847,295.993774 
	C302.713715,295.993774 308.505615,295.993774 315.241669,295.993774 
M309.078796,244.984940 
	C310.319458,244.984940 311.560120,244.984940 312.944733,244.984940 
	C309.044098,232.669998 295.395172,231.941086 275.126740,233.559677 
	C275.126740,237.288910 275.126740,241.008270 275.126740,244.984955 
	C286.328339,244.984955 297.247772,244.984955 309.078796,244.984940 
M283.078064,305.503052 
	C283.078064,300.415222 283.078064,295.327362 283.078064,290.222046 
	C280.086182,290.222046 277.662231,290.222046 274.846588,290.222046 
	C274.846588,302.839661 274.789734,315.257080 274.949738,327.671692 
	C274.963165,328.714203 276.229340,330.216431 277.273224,330.661713 
	C278.968719,331.384918 280.961884,331.410187 283.078064,331.772675 
	C283.078064,323.100159 283.078064,314.800873 283.078064,305.503052 
M276.107239,248.259430 
	C275.700104,248.631317 274.939056,249.001389 274.937134,249.375366 
	C274.874878,261.457397 274.885834,273.539825 274.885834,285.663208 
	C277.846069,285.663208 280.386963,285.663208 283.078064,285.663208 
	C283.078064,275.548370 282.761139,265.738098 283.209442,255.962891 
	C283.439636,250.943436 281.938324,248.556473 276.107239,248.259430 
z"/>
<path fill="#DAE0DA" opacity="1.000000" stroke="none" 
	d="
M236.633087,376.020294 
	C240.916092,374.211670 242.764984,377.605316 244.385574,379.937042 
	C245.075607,380.929871 243.285080,383.697449 242.508652,385.612640 
	C242.366745,385.962646 241.509933,385.977905 241.267578,386.338745 
	C236.403107,393.581238 236.354218,393.591705 228.790451,387.076172 
	C231.320740,383.500641 233.877686,379.887451 236.633087,376.020294 
M232.507599,386.478729 
	C234.365845,387.127441 236.224091,387.776154 238.082352,388.424835 
	C237.869766,387.280487 238.015518,385.851624 237.376007,385.046265 
	C235.604599,382.815521 234.037811,383.617126 232.507599,386.478729 
z"/>
<path fill="#DBE4DF" opacity="1.000000" stroke="none" 
	d="
M288.030731,202.039490 
	C289.321686,197.886124 290.459412,194.054428 291.887451,190.334167 
	C292.344574,189.143295 293.570099,188.247360 294.444061,187.216492 
	C295.215179,188.175705 296.309052,189.019730 296.699738,190.114685 
	C298.147888,194.172928 299.364227,198.313889 300.744202,202.665161 
	C299.996460,202.775772 299.053131,203.173248 298.806702,202.912384 
	C295.941772,199.879608 293.173645,198.625473 290.131470,202.726532 
	C289.929474,202.998825 288.727081,202.529007 288.030731,202.039490 
z"/>
<path fill="#DBE4DF" opacity="1.000000" stroke="none" 
	d="
M287.532593,407.131653 
	C285.052460,407.770020 282.954285,408.457031 279.609619,409.552216 
	C281.898499,404.237274 284.022217,399.305847 286.145935,394.374420 
	C287.234344,394.919281 289.054199,395.247681 289.290100,396.044800 
	C290.631714,400.578430 291.595123,405.223969 291.753326,410.494110 
	C290.473724,409.389526 289.194153,408.284943 287.532593,407.131653 
z"/>
<path fill="#DEE5DC" opacity="1.000000" stroke="none" 
	d="
M313.493042,402.191956 
	C312.432434,402.617706 311.158447,403.171387 311.143158,403.757904 
	C311.101379,405.359589 311.590454,406.975128 311.875153,408.619110 
	C308.838654,408.424225 307.293640,403.706268 306.994232,393.719604 
	C309.370392,393.394165 311.981598,392.372528 314.168304,392.952209 
	C315.845093,393.396759 318.418457,396.890503 318.145752,397.270172 
	C315.173187,401.408386 318.591522,404.115356 320.212280,407.221100 
	C319.809082,407.572266 319.405853,407.923462 319.002625,408.274628 
	C317.286377,406.294678 315.570099,404.314758 313.493042,402.191956 
M309.891663,397.498291 
	C309.911865,400.658661 311.999878,400.479431 313.811768,399.504700 
	C314.674927,399.040283 314.869080,397.332245 315.366272,396.187531 
	C313.511780,396.347046 311.657318,396.506561 309.891663,397.498291 
z"/>
<path fill="#DEE5DC" opacity="1.000000" stroke="none" 
	d="
M264.649689,403.220367 
	C263.850586,404.134583 263.211029,404.752869 262.571442,405.371155 
	C262.255188,405.151917 261.938965,404.932678 261.622711,404.713440 
	C262.160095,402.727417 262.697449,400.741394 263.341187,398.362183 
	C261.730957,397.710114 260.138397,397.065247 258.414490,396.367157 
	C257.313263,398.510376 256.279572,400.522186 255.245880,402.533997 
	C254.631439,402.255768 254.016998,401.977570 253.402573,401.699341 
	C255.157288,396.740845 256.912018,391.782379 258.666718,386.823883 
	C259.306793,386.964813 259.946869,387.105774 260.586945,387.246735 
	C260.216461,389.324829 259.845978,391.402924 259.388855,393.967072 
	C260.714111,394.538422 262.309906,395.226379 264.116760,396.005341 
	C265.215942,393.799316 266.221893,391.780457 267.227814,389.761597 
	C267.851990,390.007202 268.476166,390.252808 269.100311,390.498383 
	C267.669952,394.640411 266.239594,398.782440 264.649689,403.220367 
z"/>
<path fill="#DEE5DC" opacity="1.000000" stroke="none" 
	d="
M320.918823,205.958115 
	C320.228668,203.465820 319.589722,201.374084 318.950775,199.282333 
	C318.455353,199.387878 317.959930,199.493439 317.464508,199.598984 
	C316.646759,201.658066 315.828979,203.717133 315.011230,205.776199 
	C314.492218,205.665329 313.973175,205.554459 313.454132,205.443588 
	C313.060638,200.181198 315.987946,195.438889 316.861450,189.792496 
	C319.509766,190.577759 321.938232,191.008499 324.103424,192.009018 
	C327.194946,193.437561 327.820862,197.054489 325.634155,198.501389 
	C321.568665,201.191437 323.394684,204.344833 323.816711,208.758118 
	C322.315399,207.492706 321.642700,206.925690 320.918823,205.958115 
M319.575500,193.016998 
	C318.947998,194.344040 318.320496,195.671082 317.692993,196.998138 
	C317.999939,197.402435 318.306854,197.806747 318.613800,198.211060 
	C320.322174,197.773972 322.030548,197.336868 323.738892,196.899765 
	C322.621063,195.618347 321.503204,194.336929 319.575500,193.016998 
z"/>
<path fill="#DBE4DF" opacity="1.000000" stroke="none" 
	d="
M268.572144,204.648499 
	C271.258148,204.105927 273.538574,203.499680 275.819000,202.893433 
	C276.020660,203.557831 276.222321,204.222244 276.423950,204.886642 
	C273.121460,205.828735 269.818970,206.770828 266.076477,207.838425 
	C264.639313,202.544250 263.316376,197.671036 261.885010,192.398239 
	C265.611084,191.466125 268.974030,190.624878 272.336975,189.783615 
	C272.498077,190.396423 272.659180,191.009216 272.820282,191.622009 
	C270.439392,192.436844 268.058502,193.251678 265.179932,194.236847 
	C265.548401,195.454315 265.896942,196.605972 266.297699,197.930222 
	C268.210938,197.669159 270.027863,197.421234 271.844788,197.173309 
	C271.994629,197.598892 272.144501,198.024475 272.294342,198.450058 
	C270.696960,199.167755 269.099579,199.885468 267.076202,200.794571 
	C267.387268,201.875916 267.776947,203.230362 268.572144,204.648499 
z"/>
<path fill="#DBE4DF" opacity="1.000000" stroke="none" 
	d="
M237.800064,204.812790 
	C239.765137,203.028778 241.680710,200.932495 243.989716,200.320419 
	C245.475952,199.926407 248.188568,201.270233 249.140244,202.662872 
	C249.900436,203.775314 249.255188,206.364349 248.444382,207.874039 
	C247.773041,209.124069 245.948914,209.754990 244.534882,210.729584 
	C245.449997,212.719406 246.308685,214.586578 247.167389,216.453751 
	C246.675171,216.796097 246.182938,217.138458 245.690720,217.480820 
	C242.207184,214.056320 240.596222,209.178604 237.800064,204.812790 
M247.262192,204.620239 
	C245.262299,200.349808 243.129517,203.506027 240.594116,204.480469 
	C241.562149,206.009949 242.390259,207.318375 244.149979,210.098740 
	C245.497681,208.041962 246.379089,206.696823 247.262192,204.620239 
z"/>
<path fill="#DAE0DA" opacity="1.000000" stroke="none" 
	d="
M338.078522,397.718445 
	C336.658478,394.705231 335.370880,392.007599 333.908325,388.943359 
	C332.468964,389.226471 331.019226,389.511658 329.569489,389.796844 
	C329.368408,389.318878 329.167358,388.840942 328.966278,388.363007 
	C332.392487,386.677460 335.818695,384.991913 339.244873,383.306366 
	C339.555542,383.836487 339.866180,384.366608 340.176819,384.896729 
	C338.966888,385.735016 337.756958,386.573303 336.403381,387.511108 
	C338.203339,391.508942 340.011871,395.525787 341.820404,399.542664 
	C341.502319,399.817719 341.184265,400.092773 340.866211,400.367828 
	C339.981140,399.589874 339.096069,398.811951 338.078522,397.718445 
z"/>
<path fill="#DAE0DA" opacity="1.000000" stroke="none" 
	d="
M335.576416,212.115494 
	C338.360931,207.661606 340.226501,202.922150 343.468414,199.254776 
	C344.069122,199.677704 344.669800,200.100647 345.270477,200.523575 
	C343.116730,204.339233 340.962952,208.154892 338.694336,212.174026 
	C341.012573,213.714081 343.158142,215.139404 345.303680,216.564728 
	C344.911194,217.156799 344.518707,217.748886 344.126221,218.340958 
	C341.220093,216.365448 338.313965,214.389923 335.576416,212.115494 
z"/>
<path fill="#DEE5DC" opacity="1.000000" stroke="none" 
	d="
M357.962799,386.036652 
	C355.212616,382.442322 352.656738,379.139008 350.100830,375.835724 
	C350.707977,375.340546 351.315094,374.845398 351.922241,374.350220 
	C355.222382,378.391235 358.522552,382.432220 361.822693,386.473206 
	C361.564209,386.885040 361.305725,387.296875 361.047211,387.708710 
	C360.083832,387.248383 359.120453,386.788025 357.962799,386.036652 
z"/>
<path fill="#010101" opacity="1.000000" stroke="none" 
	d="
M333.201477,304.704102 
	C341.379211,310.631470 340.741577,332.982727 335.557800,339.628784 
	C331.724670,344.543213 326.419373,346.348541 320.735046,346.669739 
	C312.807922,347.117706 304.836517,346.782593 296.720642,346.782593 
	C296.720642,331.287079 296.720642,316.014801 296.720642,299.888519 
	C308.853760,301.066376 321.453827,297.205231 333.201477,304.704102 
z"/>
<path fill="#020202" opacity="1.000000" stroke="none" 
	d="
M314.071777,271.617340 
	C311.368317,280.150055 305.966949,284.728912 296.917542,285.322815 
	C296.917542,273.272827 296.917542,261.401337 296.917542,249.271088 
	C302.498505,249.271088 308.270508,249.271088 314.607666,249.271088 
	C315.902832,256.542572 315.917511,263.875946 314.071777,271.617340 
z"/>
<path fill="#060606" opacity="1.000000" stroke="none" 
	d="
M314.769592,295.993774 
	C308.505615,295.993774 302.713715,295.993774 296.736847,295.993774 
	C296.736847,293.891724 296.736847,292.157074 296.736847,290.455780 
	C322.750275,286.212860 327.473724,281.068573 330.153381,254.247513 
	C336.445862,259.285187 338.645508,272.415497 335.017090,283.280365 
	C332.181763,291.770294 326.393616,295.491425 314.769592,295.993774 
z"/>
<path fill="#020202" opacity="1.000000" stroke="none" 
	d="
M308.622986,244.984955 
	C297.247772,244.984955 286.328339,244.984955 275.126740,244.984955 
	C275.126740,241.008270 275.126740,237.288910 275.126740,233.559677 
	C295.395172,231.941086 309.044098,232.669998 312.944733,244.984940 
	C311.560120,244.984940 310.319458,244.984940 308.622986,244.984955 
z"/>
<path fill="#010101" opacity="1.000000" stroke="none" 
	d="
M283.078064,306.002319 
	C283.078064,314.800873 283.078064,323.100159 283.078064,331.772675 
	C280.961884,331.410187 278.968719,331.384918 277.273224,330.661713 
	C276.229340,330.216431 274.963165,328.714203 274.949738,327.671692 
	C274.789734,315.257080 274.846588,302.839661 274.846588,290.222046 
	C277.662231,290.222046 280.086182,290.222046 283.078064,290.222046 
	C283.078064,295.327362 283.078064,300.415222 283.078064,306.002319 
z"/>
<path fill="#010101" opacity="1.000000" stroke="none" 
	d="
M276.516663,248.400787 
	C281.938324,248.556473 283.439636,250.943436 283.209442,255.962891 
	C282.761139,265.738098 283.078064,275.548370 283.078064,285.663208 
	C280.386963,285.663208 277.846069,285.663208 274.885834,285.663208 
	C274.885834,273.539825 274.874878,261.457397 274.937134,249.375366 
	C274.939056,249.001389 275.700104,248.631317 276.516663,248.400787 
z"/>
<path fill="#161319" opacity="1.000000" stroke="none" 
	d="
M232.702545,386.171509 
	C234.037811,383.617126 235.604599,382.815521 237.376007,385.046265 
	C238.015518,385.851624 237.869766,387.280487 238.082336,388.424835 
	C236.224091,387.776154 234.365845,387.127441 232.702545,386.171509 
z"/>
<path fill="#161319" opacity="1.000000" stroke="none" 
	d="
M309.847229,397.082184 
	C311.657318,396.506561 313.511780,396.347046 315.366272,396.187531 
	C314.869080,397.332245 314.674927,399.040283 313.811768,399.504700 
	C311.999878,400.479431 309.911865,400.658661 309.847229,397.082184 
z"/>
<path fill="#161319" opacity="1.000000" stroke="none" 
	d="
M319.980408,193.036255 
	C321.503204,194.336929 322.621063,195.618347 323.738892,196.899780 
	C322.030548,197.336868 320.322174,197.773972 318.613800,198.211060 
	C318.306854,197.806747 317.999939,197.402435 317.692993,196.998138 
	C318.320496,195.671082 318.947998,194.344040 319.980408,193.036255 
z"/>
<path fill="#161319" opacity="1.000000" stroke="none" 
	d="
M247.261353,204.985962 
	C246.379089,206.696823 245.497681,208.041962 244.149979,210.098740 
	C242.390259,207.318375 241.562149,206.009949 240.594116,204.480469 
	C243.129517,203.506027 245.262299,200.349808 247.261353,204.985962 
z"/>
</svg>